Coordinates
version=1
nRows=12
nColumns=23
inDegrees=yes

Units are S.I. units (second, meters, Newtons, ...)
If the header above contains a line with 'inDegrees', this indicates whether rotational values are in degrees (yes) or radians (no).

endheader
time	pelvis_tilt	pelvis_list	pelvis_rotation	pelvis_tx	pelvis_ty	pelvis_tz	hip_flexion_r	hip_adduction_r	hip_rotation_r	knee_angle_r	knee_angle_r_beta	ankle_angle_r	subtalar_angle_r	mtp_angle_r	hip_flexion_l	hip_adduction_l	hip_rotation_l	knee_angle_l	knee_angle_l_beta	ankle_angle_l	subtalar_angle_l	mtp_angle_l
      7.50000000	    -19.00074407	      3.07496328	      4.30694716	      2.07591936	      0.88530206	      0.96617822	     45.61104883	     -4.98537952	     -1.11749989	    103.02124423	      1.79805991	     -7.87188465	    -24.06485472	      0.00000000	     18.73280243	      5.52127950	     -2.36182340	     40.41421058	      0.70536104	     20.86653803	     -8.67300298	      0.00000000
      7.50666667	    -19.47001849	      2.35050025	      3.68956376	      2.07719062	      0.88896886	      0.96709060	     48.03170026	     -3.86102079	     -1.39223778	    100.71359292	      1.75778380	     -6.73054952	    -24.05383438	      0.00000000	     16.21468633	      4.28158105	     -2.93845229	     37.99391123	      0.66311885	     18.43556581	     -7.58950576	      0.00000000
      7.51333333	    -18.99668382	      1.22788201	      3.11413613	      2.07955880	      0.89427599	      0.96784963	     48.96730635	     -2.49206199	     -2.22446943	     97.76895612	      1.70639019	     -5.67913748	    -24.31454708	      0.00000000	     12.58568437	      2.54665579	     -3.69754495	     35.27458316	      0.61565762	     15.74871078	     -6.20483840	      0.00000000
      7.52000000	    -19.30606432	      0.44483464	      2.44548660	      2.08141175	      0.89828416	      0.96875016	     50.73169161	     -1.34257186	     -2.69513073	     94.75966930	      1.65386823	     -4.53782139	    -24.38540828	      0.00000000	      9.88702497	      1.26217079	     -4.72899220	     32.60305162	      0.56903060	     12.55546162	     -4.96647321	      0.00000000
      7.52666667	    -19.78554308	     -0.17623498	      1.73803651	      2.08322781	      0.90194091	      0.96967795	     52.52312733	     -0.31450828	     -3.06542111	     91.52684743	      1.59744484	     -3.40528463	    -24.44623702	      0.00000000	      7.40736690	      0.23398730	     -5.85056141	     29.90013737	      0.52185584	      8.99677358	     -3.86361844	      0.00000000
      7.53333333	    -20.42646967	     -0.62416354	      1.00964589	      2.08492950	      0.90518968	      0.97066082	     54.34227909	      0.59459803	     -3.32315614	     88.09208751	      1.53749697	     -2.30289565	    -24.43056273	      0.00000000	      5.18015201	     -0.54271136	     -7.05145889	     27.25359731	      0.47566501	      5.21601732	     -2.77021855	      0.00000000
      7.54000000	    -21.31388285	     -0.82951439	      0.22168508	      2.08642247	      0.90781495	      0.97180216	     56.31714877	      1.38552945	     -3.38509556	     84.50393211	      1.47487185	     -1.18151568	    -24.29751528	      0.00000000	      3.32876324	     -1.02393221	     -8.37971832	     24.75729076	      0.43209624	      1.38427670	     -1.61660033	      0.00000000
      7.54666667	    -22.30875618	     -0.93050593	     -0.42093401	      2.08782376	      0.91003032	      0.97279881	     58.23201931	      1.93769718	     -3.54406939	     80.71241806	      1.40869744	     -0.11533591	    -24.03339014	      0.00000000	      1.78209306	     -1.38197606	     -9.65166389	     22.54028922	      0.39340226	     -2.41907747	     -0.47076129	      0.00000000
      7.55333333	    -22.64102160	     -1.19485666	     -1.03763120	      2.08968017	      0.91313421	      0.97383408	     59.14232681	      2.64279336	     -3.82041731	     76.54212569	      1.33591211	      0.98187179	    -23.71670272	      0.00000000	     -0.55591548	     -1.71866477	    -10.27199427	     20.07447980	      0.35036577	     -6.19617871	      0.23116810	      0.00000000
      7.56000000	    -23.30314061	     -1.23075288	     -1.60439760	      2.09108132	      0.91527174	      0.97501599	     60.34044502	      3.13946477	     -4.00243602	     72.30502890	      1.26196082	      2.10493885	    -23.10234558	      0.00000000	     -2.23023452	     -1.89260926	    -10.98277060	     18.20480625	      0.31773381	     -9.54871193	      1.04939271	      0.00000000
      7.56666667	    -23.64694049	     -1.40214498	     -1.98022255	      2.09264622	      0.91763557	      0.97599445	     60.95345691	      3.52306125	     -4.47082350	     67.79602977	      1.18326394	      3.30037226	    -22.25263400	      0.00000000	     -4.11322694	     -2.14608675	    -11.14843201	     16.56720690	      0.28915231	    -12.42896975	      1.55289894	      0.00000000
      7.57333333	    -23.92743671	     -1.51355715	     -2.30709340	      2.09403596	      0.91959590	      0.97706925	     61.36788855	      3.83435995	     -4.96520743	     63.17176953	      1.10255537	      4.59082953	    -21.06735392	      0.00000000	     -5.80751662	     -2.37341908	    -11.14965607	     15.48000641	      0.27017708	    -14.65436568	      1.98142257	      0.00000000
